<svg id="图层_1" data-name="图层 1" xmlns="http://www.w3.org/2000/svg" viewBox="0 0 86.47 24.51"><defs><style>.cls-1{fill:#ffffff;}</style></defs><path class="cls-1" d="M8.67,9.92a23.7,23.7,0,0,1-4,5.71,13.14,13.14,0,0,0-.85-1.37A17.18,17.18,0,0,0,7.34,9.45ZM8.4,6.58a25.71,25.71,0,0,1-3.79,4.13A9,9,0,0,0,3.89,9.5,16.5,16.5,0,0,0,7.07,6ZM6.73,11.87l.69.23v8.47H6v-8Zm3.49,5A11.58,11.58,0,0,1,8.88,20l-1.14-.65a8.75,8.75,0,0,0,1.33-2.92Zm8.31-2.53v1.2H8.42v-1.2Zm-.08-7.1v1.2H8.59V7.23Zm-.53,2.18v4H9.22v-4ZM10.4,12.36h1.35V10.49H10.4ZM12,16.63V18.8c0,.36.1.42.67.42h1.85c.48,0,.56-.17.62-1.41a3.78,3.78,0,0,0,1.15.45c-.14,1.69-.5,2.1-1.63,2.1H12.48c-1.46,0-1.81-.35-1.81-1.55V16.63Zm1.45-1.13a20.73,20.73,0,0,1,1.11,1.9l-1.15.45a21.81,21.81,0,0,0-1.05-2ZM14.36,6c-.19,1.34-.4,2.83-.61,3.78L12.37,9.7A30.77,30.77,0,0,0,12.8,6ZM12.8,12.36h1.41V10.49H12.8Zm2.45,0h1.44V10.49H15.25ZM17,16.3a14.35,14.35,0,0,1,1.65,3l-1.18.53a13.05,13.05,0,0,0-1.57-3.05Z"/><path class="cls-1" d="M33.79,10.87c-1.47,2.58-4.16,4.24-7.51,5.16a4.27,4.27,0,0,0-.77-1.13c3.16-.75,5.79-2.23,7.08-4.49Zm5.57-2.52V10.9H37.88V9.32H27.51V10.9H26.1V8.35Zm-8.81,3a12.4,12.4,0,0,1-3.19,2.09,8.88,8.88,0,0,0-.88-1,9.83,9.83,0,0,0,2.88-1.53ZM37.26,14v6.48H35.78V15h-6v5.57H28.33V14Zm-.17-4.1v1H28.37v-1Zm-.9,7.46v.86H29.36v-.86Zm0,1.64v1H29.36V19Zm0-3.27v.86H29.38v-.86ZM33.3,6V8.93H31.82V6Zm6.84,8.57a3.26,3.26,0,0,0-.79,1.2C36.56,15,34.13,14,32.09,11.47L33.2,11C35.08,13.18,37.45,14,40.14,14.59Zm-2-7.79v.84H32.67V6.8ZM36,10.9a14.93,14.93,0,0,1,2.83,1.44l-.82.9a16.66,16.66,0,0,0-2.8-1.55Z"/><path class="cls-1" d="M51.76,7.61V9.24c0,1.56-.52,3.68-3.78,5.16a4.45,4.45,0,0,0-.94-1c3.07-1.19,3.31-3,3.31-4.17V7.61ZM50.22,6.19a9.71,9.71,0,0,1-1.91,3.55A8.86,8.86,0,0,0,47.14,9a7.1,7.1,0,0,0,1.75-3.12ZM54.34,9.7v1.18H47.2V9.7ZM54,7.23V8.41H49V7.23ZM59.33,14V20.5H57.81V15.17h-7v5.36H49.41V14Zm-1,2.41V17.5H50.26V16.39Zm0,2.38V20H50.26v-1.2Zm-4-6.1-1,1c-.6-.5-2.12-1.59-2.82-2l1-.63C52,11.27,53.84,12.36,54.3,12.67Zm6.37-5.46V12.9H54.94V7.21Zm-4.34,4.36H59.2V8.52H56.33Z"/><path class="cls-1" d="M67.56,13.11a1.73,1.73,0,0,0,.83-.65,14.59,14.59,0,0,0,1.92-3l1.3.55a18.22,18.22,0,0,1-2.81,3.66v0s-.82.4-.82.67A9.38,9.38,0,0,0,67.56,13.11Zm6,4.82.08,1.27-5.83,1-.25-1.36C69.11,18.64,71.39,18.29,73.6,17.93Zm8-10.6v1.3H67.72V7.33Zm-13.82,9A2.89,2.89,0,0,0,69,15.44a23.28,23.28,0,0,0,3.36-4l1.19.63A26.35,26.35,0,0,1,69,16.84v.05s-.83.38-.83.63A7.07,7.07,0,0,0,67.75,16.29ZM68,13.36l.67-.4,3-.16A8.32,8.32,0,0,0,71.46,14a14.58,14.58,0,0,0-3.48.39Zm.14,3.05.72-.46,4.64-.51a7,7,0,0,0-.1,1.24c-4.21.54-4.83.67-5.22.84ZM72.59,6.15V9.63H71.15V6.15ZM77,9.72a14,14,0,0,1-2.54,4.8,9.8,9.8,0,0,0-1.21-.81,10.52,10.52,0,0,0,2.35-4.3Zm-.61,4.14A11.36,11.36,0,0,1,78,16.93l-1.3.51a11.35,11.35,0,0,0-1.55-3.13Zm3.74-2.75v1.28H75.72V11.11ZM78,6.15V9.57H76.56V6.15Zm3.26,5s0,.48,0,.67c-.22,5.52-.43,7.5-.95,8.14a1.54,1.54,0,0,1-1.19.64,13.83,13.83,0,0,1-2,0,3.47,3.47,0,0,0-.45-1.42c.77.07,1.48.07,1.78.07A.6.6,0,0,0,79,19c.38-.44.61-2.4.77-7.61v-.29Z"/></svg>