<svg xmlns="http://www.w3.org/2000/svg" viewBox="0 0 122.89 35.45"><defs><style>.cls-1{fill:#2f7ad6;}</style></defs><g id="图层_2" data-name="图层 2"><g id="图层_1-2" data-name="图层 1"><path class="cls-1" d="M27.3,14.63a1.22,1.22,0,0,0-.79.29l-2-2a1.61,1.61,0,0,0,.07-.49,1.64,1.64,0,1,0-3.06.8l-3.72,2.17a1.94,1.94,0,0,0-2.66.12l-2.44-2.48A2.24,2.24,0,1,0,8.51,11.9a2.2,2.2,0,0,0,.63,1.55L5.72,17.33a3.34,3.34,0,1,0,.85.7l2.92-4.28a2.19,2.19,0,0,0,1.26.39,2.23,2.23,0,0,0,1.3-.41l2.84,2.08a1.95,1.95,0,1,0,3.57,1.07,2.1,2.1,0,0,0-.08-.56l3.37-2.75a1.62,1.62,0,0,0,1.18.5,1.59,1.59,0,0,0,1-.36l2.31,1.51a1.21,1.21,0,1,0,1-.59Z"/><path class="cls-1" d="M28.16.8h0A9,9,0,0,0,21,.69a13.19,13.19,0,0,0-3.63,2.62L12.83,8.17s0,.08.05.06L17.66,5l0,0c2.95-1.82,5.44-2.59,8.69-1.73s5.73,3.5,6.88,7.09c0,.09.13.14.16,0l0-1.06A9,9,0,0,0,28.16.8Z"/><path class="cls-1" d="M5.45,34.72h0a9,9,0,0,0,7.18,0A13.21,13.21,0,0,0,16.22,32l4.43-4.94a0,0,0,0,0,0-.05l-4.73,3.3,0,0c-2.92,1.87-5.4,2.69-8.67,1.88s-5.79-3.39-7-7c0-.08-.13-.12-.16,0v1.06A9,9,0,0,0,5.45,34.72Z"/><path class="cls-1" d="M43.2,13.11v8.36H40.79V7.34h2.59l3.94,9.07.87-2.17.87-2.17L51,7.34h2.59V21.47H51.06V12.91L51,13.1l-2.5,6.28H45.91Z"/><path class="cls-1" d="M55.34,9.17V7.34h2.53V9.17Zm0,2.09h2.53V21.47H55.34Z"/><path class="cls-1" d="M62.21,21.47H59.67V11.26h2.54v.82c0-.05.1-.1.15-.15l.17-.13a4.34,4.34,0,0,1,1.17-.61,4.17,4.17,0,0,1,1.37-.2,4.93,4.93,0,0,1,1,.11,4.24,4.24,0,0,1,.91.31,3.27,3.27,0,0,1,.75.5,2.79,2.79,0,0,1,.55.64,3.73,3.73,0,0,1,.35,1A7.49,7.49,0,0,1,68.78,15v6.47H66.24V15.71a7.58,7.58,0,0,0-.16-1.89,1.46,1.46,0,0,0-.52-.84,2.59,2.59,0,0,0-.48-.23,1.35,1.35,0,0,0-.43-.08,1.68,1.68,0,0,0-.55.11,3.59,3.59,0,0,0-.62.31,2.14,2.14,0,0,0-.46.45,5,5,0,0,0-.46.74,3,3,0,0,0-.27.88,9.62,9.62,0,0,0-.08,1.3Z"/><path class="cls-1" d="M77.36,6.78H79.9V21.47H77.36V20.8a2.55,2.55,0,0,1-.3.26,3.08,3.08,0,0,1-.55.31,4.23,4.23,0,0,1-.71.23,4.14,4.14,0,0,1-.63.11,5.06,5.06,0,0,1-.68.05,4.6,4.6,0,0,1-1.25-.17,4.39,4.39,0,0,1-1.08-.48,5,5,0,0,1-1-.85,4.14,4.14,0,0,1-.66-1,7.88,7.88,0,0,1-.42-1.38A7,7,0,0,1,70,16.39a6.69,6.69,0,0,1,.31-2.07,6.32,6.32,0,0,1,.89-1.78,3.92,3.92,0,0,1,1.43-1.15,5.12,5.12,0,0,1,3.4-.2,3.44,3.44,0,0,1,1.1.55l.14.12.14.12Zm0,9.58a4.86,4.86,0,0,0-.67-2.76A2,2,0,0,0,75,12.53a2.24,2.24,0,0,0-1.71.94,4.51,4.51,0,0,0-.7,2.86,8.74,8.74,0,0,0,.17,1.93,2.78,2.78,0,0,0,.5,1.17,2.71,2.71,0,0,0,.8.63,1.93,1.93,0,0,0,.9.22,2.12,2.12,0,0,0,1.23-.46,1.9,1.9,0,0,0,.47-.55,5.59,5.59,0,0,0,.4-.85,9.51,9.51,0,0,0,.23-1A6.56,6.56,0,0,0,77.36,16.36Z"/><path class="cls-1" d="M84.23,21.47H81.55V7.34h4.76a8.76,8.76,0,0,1,1.54.12,3.63,3.63,0,0,1,1.07.35,5.07,5.07,0,0,1,.85.63,3.21,3.21,0,0,1,.59.73,5.12,5.12,0,0,1,.38,1,3.52,3.52,0,0,1,.14.95,3.61,3.61,0,0,1-.36,1.54,5.7,5.7,0,0,1-1,1.45,3.42,3.42,0,0,1-.68.5,7.62,7.62,0,0,1-1.07.53l.43.26.23.17a4.86,4.86,0,0,1,.61.74l.31.49c.1.16.19.31.27.46l2.29,4.24H89.05l-2-3.71a8.89,8.89,0,0,0-.81-1.29,7.48,7.48,0,0,0-.91-1H84.23Zm0-7.55h1.35a3,3,0,0,0,1.48-.33,2.29,2.29,0,0,0,.75-1,2.83,2.83,0,0,0,.31-1.39,2.89,2.89,0,0,0-.23-1.2,1.82,1.82,0,0,0-.65-.79,2.79,2.79,0,0,0-1.53-.34H84.23Z"/><path class="cls-1" d="M99,21.47c0-.15-.09-.29-.13-.44s-.07-.27-.09-.38a5,5,0,0,1-1.37.8,4.63,4.63,0,0,1-1.64.31A3.51,3.51,0,0,1,93.39,21a2.68,2.68,0,0,1-1-2.09,2.4,2.4,0,0,1,.35-1.27,3.51,3.51,0,0,1,1.06-1,7.24,7.24,0,0,1,1.7-.72,23.92,23.92,0,0,1,2.63-.66l.56-.11V14q0-1-.42-1.23A2.37,2.37,0,0,0,97,12.39a2.1,2.1,0,0,0-1.36.45,1.18,1.18,0,0,0-.42,1v.21H92.52v-.2a2.39,2.39,0,0,1,.66-1.42,3,3,0,0,1,.67-.58,5.58,5.58,0,0,1,1-.52,6.15,6.15,0,0,1,2.2-.36,7,7,0,0,1,1.14.09,5.4,5.4,0,0,1,1,.26,4.84,4.84,0,0,1,.94.46,1.93,1.93,0,0,1,.57.48,2.83,2.83,0,0,1,.38.91,6.41,6.41,0,0,1,.13,1.32v4.57c0,.22,0,.45,0,.69a5,5,0,0,0,.11.81,7,7,0,0,0,.23.9Zm-.29-4.94c-.36.09-.7.18-1,.28s-.62.2-.88.3-.5.2-.7.29a3.17,3.17,0,0,0-.48.29A1.52,1.52,0,0,0,95.07,19a1.67,1.67,0,0,0,.08.55,1.42,1.42,0,0,0,.23.44,1.24,1.24,0,0,0,.39.29,1.21,1.21,0,0,0,.52.11,1.55,1.55,0,0,0,.54-.1,4.24,4.24,0,0,0,.61-.3,2.78,2.78,0,0,0,.91-1.07,3.17,3.17,0,0,0,.33-1.56Z"/><path class="cls-1" d="M105.48,21.47h-2.54V11.26h2.54v.82c0-.05.1-.1.15-.15l.17-.13a4,4,0,0,1,2.54-.81,4.93,4.93,0,0,1,1,.11,4.24,4.24,0,0,1,.91.31,3.27,3.27,0,0,1,.75.5,2.52,2.52,0,0,1,.54.64,3.43,3.43,0,0,1,.36,1,7.49,7.49,0,0,1,.12,1.41v6.47h-2.54V15.71a7.58,7.58,0,0,0-.16-1.89,1.46,1.46,0,0,0-.52-.84,2.59,2.59,0,0,0-.48-.23,1.35,1.35,0,0,0-.43-.08,1.78,1.78,0,0,0-.56.11,3.9,3.9,0,0,0-.61.31,2.14,2.14,0,0,0-.46.45,5,5,0,0,0-.46.74,3,3,0,0,0-.27.88,9.62,9.62,0,0,0-.08,1.3Z"/><path class="cls-1" d="M116.32,21.47h-2.61V6.78h2.61v8.49l1.87-2c.62-.67,1.25-1.33,1.87-2h2.67L118.31,16c.75.89,1.52,1.8,2.29,2.73l2.29,2.72h-2.84l-3.73-4.39Z"/><path class="cls-1" d="M45.14,27.44A14.25,14.25,0,0,1,44.23,29v6.33H43.15V30.45c-.26.32-.61.72-1.07,1.19l-.66-.9A18.86,18.86,0,0,0,43,28.85a13.23,13.23,0,0,0,1.26-2Zm.14-3.17A17.23,17.23,0,0,1,44,26.09a21.77,21.77,0,0,1-1.55,1.77L41.7,27a19.53,19.53,0,0,0,1.46-1.65,13.75,13.75,0,0,0,1.2-1.72Zm-1,10.06a6.59,6.59,0,0,0,.7-1.22,11,11,0,0,0,.57-1.38l.93.34c-.16.42-.37.9-.62,1.44s-.46,1-.66,1.36Zm8.72-4v1H49a15.23,15.23,0,0,1,1.15,1.38l-.76.7a9,9,0,0,0-.62-.86c-.26-.34-.49-.62-.7-.87l.41-.35H45v-1Zm-7.85-4.6v-1h3.2V23.66l1.13.05v1H53v1H49.52v.86h3v3H45.42v-3h3v-.86Zm2.25,1.69h-1v1.34h1Zm3.74,5.94-.11.87c-.12.64-.41.87-1.29.94l-.9,0-.9,0c-.87-.06-1.21-.32-1.21-1.15V31.82l1,.06v1.83c0,.36.07.44.49.45l.67,0,.66,0c.38,0,.49-.13.56-.4a4.28,4.28,0,0,0,.1-.73Zm-1.7-4.6V27.38H48.39v1.34Zm1,0h1.06V27.38H50.45Zm1.37,2.93c.71,1,1.29,1.81,1.72,2.51l-.85.69c-.22-.4-.49-.84-.82-1.32s-.61-.94-.88-1.33Z"/><path class="cls-1" d="M75.87,32a18.22,18.22,0,0,1-1.74-.75v4.15H73V35H67.73v.48H66.61V31.24c-.53.25-1.12.49-1.74.74l-.42-1a17,17,0,0,0,5.32-2.8H71A16.69,16.69,0,0,0,76.32,31Zm-7.62-3.59a19.17,19.17,0,0,1-2.83,1.43L65,29c.39-.15.83-.33,1.34-.56s.93-.47,1.3-.69H67.2V27h6.32v.78h-.47c.38.14.83.35,1.35.6s.94.45,1.25.63l-.43.87c-.33-.19-.77-.42-1.31-.7s-1-.48-1.47-.65l.39-.75h-5Zm6.12-2h-8v1.28H65.27V25.6h4.31V23.53l1.08,0v.65h4.2V25h-4.2v.6h4.78v2.06H74.37Zm-6.64,5.21H73V31H67.73Zm5.27.7H67.73v.6H73ZM67.73,33.6v.58H73V33.6Zm4.41-3.4a10.3,10.3,0,0,1-1.76-1.28,10.93,10.93,0,0,1-1.8,1.28Z"/><path class="cls-1" d="M93.11,30h4.1v5.36H96v-.52H90.4v.54H89.17V30.15c-.41.2-.81.4-1.21.57l-.52-1c1.56-.57,2.36-1.19,2.73-2.08H87.7V26.7h1l-.84-.64a9.24,9.24,0,0,0,1.45-2.56l1,.37c-.11.32-.23.59-.32.79h3.34v.94H91.48v.45a4.39,4.39,0,0,1,0,.44.59.59,0,0,1,0,.21h2.17v.94H91.34l0,.14c.4.19.83.42,1.27.66a8.61,8.61,0,0,1,1,.65ZM90.36,26.7a.34.34,0,0,0,0-.15c0-.32,0-.63,0-.95h-.91a11.8,11.8,0,0,1-.74,1.1ZM93,30a23.55,23.55,0,0,0-2.08-1.37A4.2,4.2,0,0,1,89.38,30ZM90.4,32H96V31H90.4Zm0,1v1H96v-1ZM94,29.3V24.56h4.28V29.3ZM95,28.24h2.11V25.61H95Z"/><path class="cls-1" d="M115.66,33.75v.49c-.75.12-1.84.29-3.26.48l-1.88.28-.16-1.1c.77-.07,1.64-.18,2.61-.31s1.86-.27,2.65-.41Zm2.86-10.1v1.22h3v1.05h-3v.87h-1.17v-.87h-2.6v.85h-1.14v-.85h-3.15V24.87h3.15V23.59l1.14.06v1.22h2.6V23.59ZM113.67,27a9.34,9.34,0,0,1-1.45,1.95l1.56-.07c.31-.4.61-.84.91-1.31l.88.64c-.38.56-.82,1.14-1.31,1.74A16.07,16.07,0,0,1,113,31.3l2.29-.24v1.06l-1.44.13c-.63.07-1.24.13-1.85.21l-.73.1L111,31.49c.42-.11.51-.15.65-.29A14.25,14.25,0,0,0,113,29.85l-.63,0a7.57,7.57,0,0,0-.79.06l-.68.08L110.6,29a1.15,1.15,0,0,0,.55-.32,5.32,5.32,0,0,0,.75-.89,11.69,11.69,0,0,0,.87-1.37Zm4.15.05c-.16.36-.27.64-.37.81h3.48l-.06,1.49-.14,4.16c-.16,1.41-.3,1.56-1.86,1.7l-1,.08-.37-1.09,1-.06c1-.08,1.13-.2,1.19-1.17,0-.36,0-1.36.11-3l0-1H116.9a16.92,16.92,0,0,1-1.17,1.7l-.86-.62a13.22,13.22,0,0,0,1.92-3.33Zm.34,5.71a14.36,14.36,0,0,0-2-2l.65-.73a12.86,12.86,0,0,1,2,1.89Z"/></g></g></svg>