<svg id="图层_1" data-name="图层 1" xmlns="http://www.w3.org/2000/svg" viewBox="0 0 100.29 24.51"><defs><style>.cls-1{fill:#ffffff;}</style></defs><path class="cls-1" d="M3.06,21.35V5.55h0l8,11.41-.87-.19,8-11.22h0v15.8H16.23V10.21l.15,1-5.76,8.17h0L4.71,11.25l.34-.95V21.35Z"/><path class="cls-1" d="M22.05,9.41a1,1,0,0,1,.37-.79,1.24,1.24,0,0,1,.82-.31,1.15,1.15,0,0,1,.8.31,1,1,0,0,1,.37.79,1,1,0,0,1-.37.79,1.2,1.2,0,0,1-.8.31,1.29,1.29,0,0,1-.82-.31A1,1,0,0,1,22.05,9.41Zm.13,3.17h2v8.77h-2Z"/><path class="cls-1" d="M29.36,12.58l.15,2.14-.07-.34a3.19,3.19,0,0,1,1.36-1.55A4.18,4.18,0,0,1,33,12.24,2.88,2.88,0,0,1,35,13a2.52,2.52,0,0,1,.82,1.9v6.48h-2v-5.8a1.8,1.8,0,0,0-.41-1.16,1.54,1.54,0,0,0-1.22-.45,2.43,2.43,0,0,0-1.37.42,2.81,2.81,0,0,0-1,1.17,4,4,0,0,0-.35,1.71v4.11h-2V12.58Z"/><path class="cls-1" d="M42.85,21.56a4.1,4.1,0,0,1-3.76-2.24,5,5,0,0,1-.58-2.46,4.83,4.83,0,0,1,.61-2.5,4.2,4.2,0,0,1,1.65-1.59,4.86,4.86,0,0,1,2.33-.55,4.55,4.55,0,0,1,2,.45,3.43,3.43,0,0,1,1.47,1.23l-.1.69V5h2V21.35h-2V19.17l.23.55A5.16,5.16,0,0,1,45.06,21,4.62,4.62,0,0,1,42.85,21.56Zm.61-1.67a3.09,3.09,0,0,0,1.39-.3,2.89,2.89,0,0,0,1.6-2V16a2.79,2.79,0,0,0-.61-1.12,2.92,2.92,0,0,0-1-.76,3.37,3.37,0,0,0-1.34-.26,3,3,0,0,0-1.46.38,2.89,2.89,0,0,0-1.08,1.06,3.24,3.24,0,0,0,0,3.12A3.08,3.08,0,0,0,42,19.47,2.72,2.72,0,0,0,43.46,19.89Z"/><path class="cls-1" d="M56.4,6a7,7,0,0,1,2.15.31,4.85,4.85,0,0,1,1.71.91A4.1,4.1,0,0,1,61.4,8.75a4.69,4.69,0,0,1,.42,2,6,6,0,0,1-.27,1.78,4.28,4.28,0,0,1-.86,1.58,4.51,4.51,0,0,1-1.59,1.14,6.08,6.08,0,0,1-2.45.43H54.39v5.64H52.33V6Zm.21,7.68a3.68,3.68,0,0,0,1.51-.27,2.42,2.42,0,0,0,1-.71,3,3,0,0,0,.48-.92,3.24,3.24,0,0,0,.15-1,3,3,0,0,0-.16-1A2.72,2.72,0,0,0,59,9a2.62,2.62,0,0,0-.91-.71A3.11,3.11,0,0,0,56.76,8H54.39v5.71Zm2.52,1.19,4,6.44H60.76L56.67,15Z"/><path class="cls-1" d="M69.44,21.56A4.74,4.74,0,0,1,67.21,21a3.93,3.93,0,0,1-1.6-1.56A4.88,4.88,0,0,1,65,17a5,5,0,0,1,.61-2.54,4.3,4.3,0,0,1,1.65-1.63,4.64,4.64,0,0,1,2.27-.57,3.76,3.76,0,0,1,2.08.56,3.88,3.88,0,0,1,1.29,1.33l-.13.31L73,12.58H74.8v8.77h-2V19.06l.23.51a2.59,2.59,0,0,1-.4.54,5.69,5.69,0,0,1-.75.67,4.32,4.32,0,0,1-1.07.56A4,4,0,0,1,69.44,21.56ZM70,19.93a3.09,3.09,0,0,0,1.34-.28,2.58,2.58,0,0,0,1-.78,3,3,0,0,0,.54-1.19V16a2.71,2.71,0,0,0-.59-1.11,2.88,2.88,0,0,0-1-.74,3,3,0,0,0-1.29-.27,2.84,2.84,0,0,0-2.51,1.44A3.12,3.12,0,0,0,67,16.88a3,3,0,0,0,1.48,2.65A2.79,2.79,0,0,0,70,19.93Z"/><path class="cls-1" d="M80,12.58l.15,2.14-.07-.34a3.19,3.19,0,0,1,1.36-1.55,4.13,4.13,0,0,1,2.22-.59,2.9,2.9,0,0,1,2,.73,2.56,2.56,0,0,1,.82,1.9v6.48h-2v-5.8a1.8,1.8,0,0,0-.42-1.16,1.51,1.51,0,0,0-1.21-.45,2.41,2.41,0,0,0-1.37.42,2.74,2.74,0,0,0-1,1.17,3.84,3.84,0,0,0-.35,1.71v4.11h-2V12.58Z"/><path class="cls-1" d="M89.9,21.35V5h2V21.35Zm1.37-2.8-.19-1.9,5.31-4.26,1.21,1Zm2.75-3,4,5.82H95.72l-3-4.7Z"/></svg>