<?xml version="1.0" encoding="UTF-8"?>
<svg id="_图层_2" data-name="图层 2" xmlns="http://www.w3.org/2000/svg" viewBox="0 0 404.65 60.17">
  <defs>
    <style>
      .cls-1 {
        fill: #3658a3;
      }

      .cls-2 {
        fill: #62b6e6;
      }
    </style>
  </defs>
  <g id="_图层_1-2" data-name=" 图层 1">
    <g>
      <path class="cls-1" d="M92.25,15.72c1.62,.75,2.85,1.8,3.69,3.15,.84,1.35,1.26,2.9,1.26,4.64,0,3.21-1.01,5.71-3.04,7.5s-4.92,2.68-8.67,2.68h-7.74l-1.04,12.97h-7.02l2.52-32.05h14.23c2.25,0,4.19,.38,5.81,1.12h0Zm-3.13,11.45c.97-.77,1.46-1.85,1.46-3.26,0-2.61-1.68-3.92-5.04-3.92h-6.71l-.68,8.33h6.66c1.89,0,3.32-.38,4.3-1.15h0Z"/>
      <path class="cls-1" d="M119.55,25.35c1.31,1.41,1.96,3.47,1.96,6.17,0,.66-.02,1.16-.04,1.49l-1.08,13.64h-6.8l1.08-13.33c.03-.18,.04-.45,.04-.81,0-1.29-.31-2.27-.92-2.95-.62-.67-1.52-1.01-2.72-1.01-1.53,0-2.72,.47-3.56,1.42s-1.34,2.24-1.49,3.89l-1.04,12.79h-6.8l2.61-33.13h6.8l-1.04,12.88c.81-.99,1.85-1.76,3.11-2.32s2.64-.83,4.14-.83c2.52,0,4.43,.71,5.74,2.12v-.02Z"/>
      <path class="cls-1" d="M149.06,23.46l-1.8,22.83h-6.71l.22-2.93c-.75,1.05-1.73,1.86-2.93,2.43s-2.52,.86-3.96,.86c-1.92,0-3.62-.44-5.09-1.33-1.47-.88-2.61-2.15-3.42-3.8s-1.22-3.6-1.22-5.85c0-2.49,.46-4.7,1.37-6.64,.92-1.94,2.2-3.44,3.85-4.52,1.65-1.08,3.54-1.62,5.67-1.62,1.59,0,2.99,.31,4.19,.92,1.2,.62,2.16,1.51,2.88,2.68l.23-3.02h6.72Zm-9,16.11c.96-1.29,1.44-3.02,1.44-5.18s-.44-3.68-1.31-4.75-2.13-1.6-3.78-1.6-3.05,.65-4.03,1.96-1.46,3.07-1.46,5.29c0,2.01,.45,3.55,1.35,4.61s2.19,1.6,3.87,1.6,2.96-.64,3.92-1.94h0Z"/>
      <path class="cls-1" d="M168.87,23.73l-.45,6.17c-1.08-.48-2.19-.72-3.33-.72-1.8,0-3.21,.47-4.23,1.4-1.02,.93-1.59,2.31-1.71,4.14l-.99,11.93h-6.8l1.31-16.3c.12-2.1,.18-3.68,.18-4.73,0-.81-.02-1.41-.04-1.8h6.44l.09,3.38c.66-1.23,1.64-2.19,2.93-2.88,1.29-.69,2.69-1.04,4.19-1.04,.96,0,1.77,.15,2.43,.45h-.02Z"/>
      <path class="cls-1" d="M203.8,25.38c1.26,1.43,1.89,3.5,1.89,6.24,0,.6-.02,1.05-.04,1.35l-1.08,13.69h-6.8l1.04-13.51c.03-.21,.04-.51,.04-.9,0-2.46-1.05-3.69-3.15-3.69-2.76,0-4.29,1.88-4.59,5.63l-.95,12.47h-6.84l1.08-13.42,.04-.81c0-2.58-1.07-3.87-3.2-3.87-2.76,0-4.28,1.88-4.55,5.63l-1.04,12.47h-6.8l1.31-16.3c.12-1.29,.18-2.75,.18-4.37,0-.96,0-1.68-.04-2.16h6.44l.09,2.97c.87-1.2,1.9-2.09,3.08-2.68,1.18-.58,2.56-.88,4.12-.88s2.95,.34,4.07,1.01c1.12,.68,1.96,1.66,2.5,2.95,.9-1.29,2-2.27,3.31-2.95,1.31-.67,2.77-1.01,4.39-1.01,2.4,0,4.23,.71,5.49,2.14h0Z"/>
      <path class="cls-1" d="M232.7,23.46l-1.8,22.83h-6.71l.23-2.93c-.75,1.05-1.73,1.86-2.93,2.43s-2.52,.86-3.96,.86c-1.92,0-3.62-.44-5.09-1.33-1.47-.88-2.61-2.15-3.42-3.8s-1.21-3.6-1.21-5.85c0-2.49,.46-4.7,1.37-6.64,.92-1.94,2.2-3.44,3.85-4.52,1.65-1.08,3.54-1.62,5.67-1.62,1.59,0,2.99,.31,4.19,.92s2.16,1.51,2.88,2.68l.22-3.02h6.71Zm-9,16.11c.96-1.29,1.44-3.02,1.44-5.18s-.44-3.68-1.31-4.75-2.13-1.6-3.78-1.6-3.05,.65-4.03,1.96-1.46,3.07-1.46,5.29c0,2.01,.45,3.55,1.35,4.61s2.19,1.6,3.87,1.6,2.96-.64,3.92-1.94h0Z"/>
      <path class="cls-1" d="M243.65,20.04l-.63,7.56h14.32l-.5,5.49h-14.23l-.68,8.1h15.22l-.45,5.45h-22.06l2.52-32.05h22.1l-.45,5.45h-15.16Z"/>
      <path class="cls-1" d="M274.39,34.94l8.64,11.71h-7.92l-4.95-7.07-6.03,7.07h-8.1l10.53-11.79-8.19-11.03h7.88l4.5,6.35,5.4-6.35h8.15l-9.9,11.12h0Z"/>
      <path class="cls-1" d="M303.75,24.21c1.47,.89,2.61,2.16,3.42,3.83,.81,1.67,1.22,3.61,1.22,5.83,0,2.49-.46,4.71-1.37,6.64-.92,1.94-2.2,3.44-3.85,4.52-1.65,1.08-3.54,1.62-5.67,1.62-1.56,0-2.94-.31-4.14-.92-1.2-.62-2.16-1.49-2.88-2.63l-1.04,12.92h-6.8l2.07-26.02c.12-1.29,.18-2.75,.18-4.37,0-.96-.01-1.68-.04-2.16h6.44l.09,3.29c.72-1.2,1.72-2.15,2.99-2.84,1.28-.69,2.71-1.04,4.3-1.04,1.92,0,3.62,.44,5.09,1.33h0Zm-3.6,15.4c.96-1.28,1.44-3.04,1.44-5.29,0-2.01-.45-3.56-1.35-4.64s-2.18-1.62-3.83-1.62-2.96,.65-3.94,1.96-1.46,3.04-1.46,5.2,.44,3.64,1.33,4.71c.88,1.07,2.15,1.6,3.8,1.6s3.05-.64,4.01-1.91h0Z"/>
      <path class="cls-1" d="M313.07,13.51h6.8l-2.66,33.13h-6.8s2.66-33.13,2.66-33.13Z"/>
      <path class="cls-1" d="M326.68,45.25c-1.79-.93-3.16-2.24-4.12-3.94-.96-1.7-1.44-3.67-1.44-5.92,0-2.55,.5-4.77,1.51-6.66,1-1.89,2.42-3.34,4.25-4.34s3.96-1.51,6.39-1.51,4.49,.47,6.28,1.4,3.16,2.24,4.12,3.94c.96,1.7,1.44,3.67,1.44,5.92,0,2.58-.5,4.81-1.51,6.69-1.01,1.88-2.42,3.32-4.23,4.32-1.82,1.01-3.94,1.51-6.37,1.51s-4.54-.46-6.33-1.4h0Zm10.35-5.84c.88-1.4,1.33-3.22,1.33-5.47,0-1.95-.42-3.42-1.26-4.41-.84-.99-2.09-1.49-3.74-1.49-1.86,0-3.24,.69-4.14,2.07-.9,1.38-1.35,3.18-1.35,5.4,0,3.99,1.7,5.99,5.09,5.99,1.83,0,3.19-.7,4.07-2.09h0Z"/>
      <path class="cls-1" d="M364.66,23.73l-.45,6.17c-1.08-.48-2.19-.72-3.33-.72-1.8,0-3.21,.47-4.23,1.4-1.02,.93-1.59,2.31-1.71,4.14l-.99,11.93h-6.8l1.31-16.3c.12-2.1,.18-3.68,.18-4.73,0-.81-.01-1.41-.04-1.8h6.44l.09,3.38c.66-1.23,1.64-2.19,2.93-2.88,1.29-.69,2.69-1.04,4.19-1.04,.96,0,1.77,.15,2.43,.45h-.02Z"/>
      <path class="cls-1" d="M382.39,25.6c1.83,1.82,2.75,4.34,2.75,7.59,0,.72-.04,1.47-.14,2.25h-14.95c.03,2.01,.53,3.53,1.51,4.57s2.41,1.55,4.3,1.55c2.43,0,4.68-.76,6.75-2.3l1.44,4.59c-1.02,.87-2.3,1.55-3.83,2.05s-3.14,.74-4.82,.74c-2.37,0-4.46-.46-6.26-1.37-1.8-.92-3.19-2.22-4.16-3.92-.98-1.7-1.46-3.67-1.46-5.92,0-2.43,.5-4.6,1.49-6.51s2.36-3.39,4.12-4.46,3.73-1.6,5.92-1.6c3.06,0,5.51,.91,7.34,2.72v.02Zm-12.02,6.46h9.14c0-1.41-.38-2.5-1.12-3.26-.75-.77-1.77-1.15-3.06-1.15-2.7,0-4.35,1.47-4.95,4.41h-.01Z"/>
      <path class="cls-1" d="M404.63,23.73l-.45,6.17c-1.08-.48-2.19-.72-3.33-.72-1.8,0-3.21,.47-4.23,1.4-1.02,.93-1.59,2.31-1.71,4.14l-.99,11.93h-6.8l1.31-16.3c.12-2.1,.18-3.68,.18-4.73,0-.81-.01-1.41-.04-1.8h6.44l.09,3.38c.66-1.23,1.64-2.19,2.93-2.88,1.29-.69,2.69-1.04,4.19-1.04,.96,0,1.77,.15,2.43,.45h-.02Z"/>
    </g>
    <path class="cls-1" d="M52.13,30.1c-2.25-2.25-5.43-3-8.31-2.27h0c-2.96,.77-5.38-.16-6.64-1.42-.36-.36-2.81-3.38-1.27-6.5h0c2.45-5.18,1.55-11.55-2.73-15.83-5.44-5.44-14.27-5.44-19.71,0-5.44,5.44-5.44,14.27,0,19.71,4.42,4.42,11.07,5.25,16.33,2.49,3.08-1.45,5.95,.85,6.31,1.21,1.26,1.26,2.19,3.68,1.41,6.64h0c-.47,1.85-.32,3.82,.45,5.6h0c1.01,2.42-.34,4.1-.6,4.36-.91,.91-2.35,1.25-4.77,1.01l.03,.03c-1.53-.18-3.12,.3-4.3,1.47-2.04,2.04-2.04,5.35,0,7.39s5.35,2.04,7.39,0c1.2-1.2,1.67-2.83,1.46-4.38l.02,.02c-.24-2.42,.02-3.86,.93-4.77,.26-.26,1.94-1.61,4.35-.6h0c3.18,1.37,7.02,.77,9.62-1.83,3.4-3.4,3.4-8.92,0-12.32h.02Z"/>
    <path class="cls-2" d="M26.32,33.74c-2.04-2.04-5.35-2.04-7.39,0-1.2,1.2-1.67,2.83-1.46,4.38l-.02-.02c.24,2.42-.02,3.86-.93,4.77-.26,.26-1.94,1.61-4.35,.6h0c-3.18-1.37-7.02-.77-9.62,1.83-3.4,3.4-3.4,8.92,0,12.32s8.92,3.4,12.32,0c2.6-2.6,3.21-6.44,1.83-9.62h0c-1.01-2.42,.34-4.1,.6-4.36,.91-.91,2.35-1.25,4.77-1.01l-.03-.03c1.53,.18,3.12-.3,4.3-1.47,2.04-2.04,2.04-5.35,0-7.39h-.02Z"/>
  </g>
</svg>