<svg xmlns="http://www.w3.org/2000/svg" width="44" height="48" fill="none"><path fill="#3658A3" d="M41.94 23.855c-1.84-1.784-4.44-2.378-6.793-1.8-2.42.61-4.399-.126-5.429-1.125-.294-.285-2.297-2.679-1.038-5.151 2.003-4.105 1.267-9.154-2.232-12.546-4.447-4.31-11.665-4.31-16.113 0-4.447 4.312-4.447 11.31 0 15.62 3.614 3.504 9.05 4.161 13.35 1.974 2.518-1.149 4.864.674 5.159.959 1.03.999 1.79 2.916 1.152 5.262a6.704 6.704 0 0 0 .368 4.438c.826 1.918-.278 3.25-.49 3.456-.744.72-1.921.99-3.9.8l.025.024c-1.251-.143-2.55.238-3.516 1.165a4.053 4.053 0 0 0 0 5.857c1.668 1.616 4.374 1.616 6.042 0a4.025 4.025 0 0 0 1.193-3.472l.017.016c-.197-1.918.016-3.059.76-3.78.212-.206 1.586-1.276 3.556-.476 2.6 1.086 5.739.61 7.864-1.45a6.759 6.759 0 0 0 0-9.764h.017l.008-.007Z"/><path fill="#62B6E6" d="M21.72 27.204c-1.683-1.605-4.414-1.605-6.098 0a3.957 3.957 0 0 0-1.205 3.446l-.016-.015c.198 1.904-.017 3.037-.768 3.753-.214.204-1.6 1.267-3.59.472-2.624-1.078-5.793-.606-7.939 1.44-2.805 2.675-2.805 7.018 0 9.694 2.806 2.675 7.362 2.675 10.168 0 2.145-2.046 2.649-5.068 1.51-7.57-.834-1.904.28-3.226.495-3.43.751-.716 1.94-.984 3.937-.795l-.025-.024c1.262.142 2.575-.236 3.548-1.156a3.979 3.979 0 0 0 0-5.815h-.016Z"/></svg>